<?xml version="1.0" encoding="UTF-8"?>
<!--
Copyright 1999-2004 The Apache Software Foundation

Licensed under the Apache License, Version 2.0 (the "License");
you may not use this file except in compliance with the License.
You may obtain a copy of the License at

http://www.apache.org/licenses/LICENSE-2.0

Unless required by applicable law or agreed to in writing, software
distributed under the License is distributed on an "AS IS" BASIS,
WITHOUT WARRANTIES OR CONDITIONS OF ANY KIND, either express or implied.
See the License for the specific language governing permissions and
limitations under the License.

Author: Jörg Werner
-->
<!DOCTYPE svg PUBLIC "-//W3C//DTD SVG 1.0//EN" "http://www.w3.org/TR/2001/REC-SVG-20010904/DTD/svg10.dtd">
<svg width="14mm" height="60mm" viewBox="0 0 1400 6000">
 <g>
  <defs>
   <clipPath id="clip1">
    <polygon points="1381,0 1381,6001 0,3001 1381,0"/>
   </clipPath>
  </defs>
  <g style="clip-path:URL(#clip1)">
   <g style="stroke:none;fill:rgb(0,0,128)">
    <polygon points="-3005,2999 690,-695 690,-695 -3005,2999"/>
    <polygon points="-3005,2999 690,-695 704,-681 -2990,3013"/>
    <polygon points="-2990,3013 704,-681 719,-666 -2976,3028"/>
   </g>
   <g style="stroke:none;fill:rgb(1,1,128)">
    <polygon points="-2976,3028 719,-666 733,-652 -2961,3042"/>
   </g>
   <g style="stroke:none;fill:rgb(2,2,129)">
    <polygon points="-2961,3042 733,-652 748,-637 -2947,3057"/>
   </g>
   <g style="stroke:none;fill:rgb(3,3,129)">
    <polygon points="-2947,3057 748,-637 762,-623 -2933,3071"/>
   </g>
   <g style="stroke:none;fill:rgb(4,4,130)">
    <polygon points="-2933,3071 762,-623 777,-608 -2918,3086"/>
   </g>
   <g style="stroke:none;fill:rgb(5,5,130)">
    <polygon points="-2918,3086 777,-608 791,-594 -2904,3100"/>
   </g>
   <g style="stroke:none;fill:rgb(6,6,131)">
    <polygon points="-2904,3100 791,-594 806,-579 -2889,3115"/>
   </g>
   <g style="stroke:none;fill:rgb(7,7,131)">
    <polygon points="-2889,3115 806,-579 820,-565 -2875,3129"/>
   </g>
   <g style="stroke:none;fill:rgb(8,8,132)">
    <polygon points="-2875,3129 820,-565 835,-550 -2860,3144"/>
   </g>
   <g style="stroke:none;fill:rgb(9,9,132)">
    <polygon points="-2860,3144 835,-550 849,-536 -2846,3158"/>
   </g>
   <g style="stroke:none;fill:rgb(10,10,133)">
    <polygon points="-2846,3158 849,-536 864,-521 -2831,3173"/>
   </g>
   <g style="stroke:none;fill:rgb(11,11,133)">
    <polygon points="-2831,3173 864,-521 878,-507 -2817,3187"/>
   </g>
   <g style="stroke:none;fill:rgb(12,12,134)">
    <polygon points="-2817,3187 878,-507 893,-492 -2802,3202"/>
   </g>
   <g style="stroke:none;fill:rgb(13,13,134)">
    <polygon points="-2802,3202 893,-492 907,-478 -2788,3216"/>
   </g>
   <g style="stroke:none;fill:rgb(14,14,135)">
    <polygon points="-2788,3216 907,-478 922,-463 -2773,3231"/>
   </g>
   <g style="stroke:none;fill:rgb(15,15,135)">
    <polygon points="-2773,3231 922,-463 936,-449 -2759,3245"/>
   </g>
   <g style="stroke:none;fill:rgb(16,16,136)">
    <polygon points="-2759,3245 936,-449 951,-434 -2744,3260"/>
   </g>
   <g style="stroke:none;fill:rgb(17,17,136)">
    <polygon points="-2744,3260 951,-434 965,-420 -2730,3274"/>
   </g>
   <g style="stroke:none;fill:rgb(18,18,137)">
    <polygon points="-2730,3274 965,-420 980,-405 -2715,3289"/>
   </g>
   <g style="stroke:none;fill:rgb(19,19,137)">
    <polygon points="-2715,3289 980,-405 994,-391 -2701,3303"/>
   </g>
   <g style="stroke:none;fill:rgb(20,20,138)">
    <polygon points="-2701,3303 994,-391 1009,-376 -2686,3318"/>
   </g>
   <g style="stroke:none;fill:rgb(21,21,138)">
    <polygon points="-2686,3318 1009,-376 1023,-362 -2672,3332"/>
   </g>
   <g style="stroke:none;fill:rgb(22,22,139)">
    <polygon points="-2672,3332 1023,-362 1038,-347 -2657,3347"/>
   </g>
   <g style="stroke:none;fill:rgb(23,23,139)">
    <polygon points="-2657,3347 1038,-347 1052,-333 -2643,3361"/>
   </g>
   <g style="stroke:none;fill:rgb(24,24,140)">
    <polygon points="-2643,3361 1052,-333 1067,-318 -2628,3376"/>
   </g>
   <g style="stroke:none;fill:rgb(25,25,140)">
    <polygon points="-2628,3376 1067,-318 1081,-304 -2614,3390"/>
   </g>
   <g style="stroke:none;fill:rgb(26,26,141)">
    <polygon points="-2614,3390 1081,-304 1096,-289 -2599,3405"/>
   </g>
   <g style="stroke:none;fill:rgb(27,27,141)">
    <polygon points="-2599,3405 1096,-289 1110,-275 -2585,3419"/>
   </g>
   <g style="stroke:none;fill:rgb(28,28,142)">
    <polygon points="-2585,3419 1110,-275 1125,-260 -2570,3434"/>
   </g>
   <g style="stroke:none;fill:rgb(29,29,142)">
    <polygon points="-2570,3434 1125,-260 1139,-246 -2556,3448"/>
   </g>
   <g style="stroke:none;fill:rgb(30,30,143)">
    <polygon points="-2556,3448 1139,-246 1154,-231 -2541,3463"/>
   </g>
   <g style="stroke:none;fill:rgb(31,31,143)">
    <polygon points="-2541,3463 1154,-231 1168,-217 -2527,3477"/>
   </g>
   <g style="stroke:none;fill:rgb(32,32,144)">
    <polygon points="-2527,3477 1168,-217 1183,-202 -2512,3492"/>
   </g>
   <g style="stroke:none;fill:rgb(33,33,144)">
    <polygon points="-2512,3492 1183,-202 1197,-188 -2498,3506"/>
   </g>
   <g style="stroke:none;fill:rgb(34,34,145)">
    <polygon points="-2498,3506 1197,-188 1212,-173 -2483,3521"/>
   </g>
   <g style="stroke:none;fill:rgb(35,35,145)">
    <polygon points="-2483,3521 1212,-173 1226,-159 -2469,3535"/>
   </g>
   <g style="stroke:none;fill:rgb(36,36,146)">
    <polygon points="-2469,3535 1226,-159 1241,-145 -2454,3550"/>
   </g>
   <g style="stroke:none;fill:rgb(37,37,146)">
    <polygon points="-2454,3550 1241,-145 1255,-130 -2440,3564"/>
   </g>
   <g style="stroke:none;fill:rgb(38,38,147)">
    <polygon points="-2440,3564 1255,-130 1270,-116 -2425,3579"/>
   </g>
   <g style="stroke:none;fill:rgb(39,39,147)">
    <polygon points="-2425,3579 1270,-116 1284,-101 -2411,3593"/>
   </g>
   <g style="stroke:none;fill:rgb(40,40,148)">
    <polygon points="-2411,3593 1284,-101 1299,-87 -2396,3608"/>
   </g>
   <g style="stroke:none;fill:rgb(41,41,148)">
    <polygon points="-2396,3608 1299,-87 1313,-72 -2382,3622"/>
   </g>
   <g style="stroke:none;fill:rgb(42,42,149)">
    <polygon points="-2382,3622 1313,-72 1328,-58 -2367,3637"/>
   </g>
   <g style="stroke:none;fill:rgb(43,43,149)">
    <polygon points="-2367,3637 1328,-58 1342,-43 -2353,3651"/>
   </g>
   <g style="stroke:none;fill:rgb(44,44,150)">
    <polygon points="-2353,3651 1342,-43 1357,-29 -2338,3666"/>
   </g>
   <g style="stroke:none;fill:rgb(45,45,150)">
    <polygon points="-2338,3666 1357,-29 1371,-14 -2324,3680"/>
   </g>
   <g style="stroke:none;fill:rgb(46,46,151)">
    <polygon points="-2324,3680 1371,-14 1386,0 -2309,3695"/>
   </g>
   <g style="stroke:none;fill:rgb(47,47,151)">
    <polygon points="-2309,3695 1386,0 1400,15 -2295,3709"/>
   </g>
   <g style="stroke:none;fill:rgb(48,48,152)">
    <polygon points="-2295,3709 1400,15 1415,29 -2280,3724"/>
   </g>
   <g style="stroke:none;fill:rgb(49,49,152)">
    <polygon points="-2280,3724 1415,29 1429,44 -2266,3738"/>
   </g>
   <g style="stroke:none;fill:rgb(50,50,153)">
    <polygon points="-2266,3738 1429,44 1444,58 -2251,3753"/>
   </g>
   <g style="stroke:none;fill:rgb(51,51,153)">
    <polygon points="-2251,3753 1444,58 1458,73 -2237,3767"/>
   </g>
   <g style="stroke:none;fill:rgb(52,52,154)">
    <polygon points="-2237,3767 1458,73 1473,87 -2222,3782"/>
   </g>
   <g style="stroke:none;fill:rgb(53,53,154)">
    <polygon points="-2222,3782 1473,87 1487,102 -2208,3796"/>
   </g>
   <g style="stroke:none;fill:rgb(54,54,155)">
    <polygon points="-2208,3796 1487,102 1502,116 -2193,3811"/>
   </g>
   <g style="stroke:none;fill:rgb(55,55,155)">
    <polygon points="-2193,3811 1502,116 1516,131 -2179,3825"/>
   </g>
   <g style="stroke:none;fill:rgb(56,56,156)">
    <polygon points="-2179,3825 1516,131 1531,145 -2164,3840"/>
   </g>
   <g style="stroke:none;fill:rgb(57,57,156)">
    <polygon points="-2164,3840 1531,145 1545,160 -2150,3854"/>
   </g>
   <g style="stroke:none;fill:rgb(58,58,157)">
    <polygon points="-2150,3854 1545,160 1560,174 -2135,3869"/>
   </g>
   <g style="stroke:none;fill:rgb(59,59,157)">
    <polygon points="-2135,3869 1560,174 1574,189 -2121,3883"/>
   </g>
   <g style="stroke:none;fill:rgb(60,60,158)">
    <polygon points="-2121,3883 1574,189 1589,203 -2106,3898"/>
   </g>
   <g style="stroke:none;fill:rgb(61,61,158)">
    <polygon points="-2106,3898 1589,203 1603,218 -2092,3912"/>
   </g>
   <g style="stroke:none;fill:rgb(62,62,159)">
    <polygon points="-2092,3912 1603,218 1618,232 -2077,3927"/>
   </g>
   <g style="stroke:none;fill:rgb(63,63,159)">
    <polygon points="-2077,3927 1618,232 1632,247 -2063,3941"/>
   </g>
   <g style="stroke:none;fill:rgb(64,64,160)">
    <polygon points="-2063,3941 1632,247 1647,261 -2048,3956"/>
   </g>
   <g style="stroke:none;fill:rgb(65,65,160)">
    <polygon points="-2048,3956 1647,261 1661,276 -2034,3970"/>
   </g>
   <g style="stroke:none;fill:rgb(66,66,161)">
    <polygon points="-2034,3970 1661,276 1676,290 -2019,3985"/>
   </g>
   <g style="stroke:none;fill:rgb(67,67,161)">
    <polygon points="-2019,3985 1676,290 1690,305 -2005,3999"/>
   </g>
   <g style="stroke:none;fill:rgb(68,68,162)">
    <polygon points="-2005,3999 1690,305 1705,319 -1990,4014"/>
   </g>
   <g style="stroke:none;fill:rgb(69,69,162)">
    <polygon points="-1990,4014 1705,319 1719,334 -1976,4028"/>
   </g>
   <g style="stroke:none;fill:rgb(70,70,163)">
    <polygon points="-1976,4028 1719,334 1734,348 -1961,4043"/>
   </g>
   <g style="stroke:none;fill:rgb(71,71,163)">
    <polygon points="-1961,4043 1734,348 1748,362 -1947,4057"/>
   </g>
   <g style="stroke:none;fill:rgb(72,72,164)">
    <polygon points="-1947,4057 1748,362 1763,377 -1932,4072"/>
   </g>
   <g style="stroke:none;fill:rgb(73,73,164)">
    <polygon points="-1932,4072 1763,377 1777,391 -1918,4086"/>
   </g>
   <g style="stroke:none;fill:rgb(74,74,165)">
    <polygon points="-1918,4086 1777,391 1792,406 -1903,4101"/>
   </g>
   <g style="stroke:none;fill:rgb(75,75,165)">
    <polygon points="-1903,4101 1792,406 1806,420 -1889,4115"/>
   </g>
   <g style="stroke:none;fill:rgb(76,76,166)">
    <polygon points="-1889,4115 1806,420 1821,435 -1874,4130"/>
   </g>
   <g style="stroke:none;fill:rgb(77,77,166)">
    <polygon points="-1874,4130 1821,435 1835,449 -1860,4144"/>
   </g>
   <g style="stroke:none;fill:rgb(78,78,167)">
    <polygon points="-1860,4144 1835,449 1850,464 -1845,4159"/>
   </g>
   <g style="stroke:none;fill:rgb(79,79,167)">
    <polygon points="-1845,4159 1850,464 1864,478 -1831,4173"/>
   </g>
   <g style="stroke:none;fill:rgb(80,80,168)">
    <polygon points="-1831,4173 1864,478 1879,493 -1816,4188"/>
   </g>
   <g style="stroke:none;fill:rgb(81,81,168)">
    <polygon points="-1816,4188 1879,493 1893,507 -1802,4202"/>
   </g>
   <g style="stroke:none;fill:rgb(82,82,169)">
    <polygon points="-1802,4202 1893,507 1908,522 -1787,4217"/>
   </g>
   <g style="stroke:none;fill:rgb(83,83,169)">
    <polygon points="-1787,4217 1908,522 1922,536 -1773,4231"/>
   </g>
   <g style="stroke:none;fill:rgb(84,84,170)">
    <polygon points="-1773,4231 1922,536 1937,551 -1758,4246"/>
   </g>
   <g style="stroke:none;fill:rgb(85,85,170)">
    <polygon points="-1758,4246 1937,551 1951,565 -1744,4260"/>
   </g>
   <g style="stroke:none;fill:rgb(86,86,171)">
    <polygon points="-1744,4260 1951,565 1966,580 -1729,4275"/>
   </g>
   <g style="stroke:none;fill:rgb(87,87,171)">
    <polygon points="-1729,4275 1966,580 1980,594 -1715,4289"/>
   </g>
   <g style="stroke:none;fill:rgb(88,88,172)">
    <polygon points="-1715,4289 1980,594 1995,609 -1700,4304"/>
   </g>
   <g style="stroke:none;fill:rgb(89,89,172)">
    <polygon points="-1700,4304 1995,609 2009,623 -1686,4318"/>
   </g>
   <g style="stroke:none;fill:rgb(90,90,173)">
    <polygon points="-1686,4318 2009,623 2024,638 -1671,4333"/>
   </g>
   <g style="stroke:none;fill:rgb(91,91,173)">
    <polygon points="-1671,4333 2024,638 2038,652 -1657,4347"/>
   </g>
   <g style="stroke:none;fill:rgb(92,92,174)">
    <polygon points="-1657,4347 2038,652 2053,667 -1642,4362"/>
   </g>
   <g style="stroke:none;fill:rgb(93,93,174)">
    <polygon points="-1642,4362 2053,667 2067,681 -1628,4376"/>
   </g>
   <g style="stroke:none;fill:rgb(94,94,175)">
    <polygon points="-1628,4376 2067,681 2082,696 -1613,4391"/>
   </g>
   <g style="stroke:none;fill:rgb(95,95,175)">
    <polygon points="-1613,4391 2082,696 2096,710 -1599,4405"/>
   </g>
   <g style="stroke:none;fill:rgb(96,96,176)">
    <polygon points="-1599,4405 2096,710 2111,725 -1584,4420"/>
   </g>
   <g style="stroke:none;fill:rgb(97,97,176)">
    <polygon points="-1584,4420 2111,725 2125,739 -1570,4434"/>
   </g>
   <g style="stroke:none;fill:rgb(98,98,177)">
    <polygon points="-1570,4434 2125,739 2140,754 -1555,4449"/>
   </g>
   <g style="stroke:none;fill:rgb(99,99,177)">
    <polygon points="-1555,4449 2140,754 2154,768 -1541,4463"/>
   </g>
   <g style="stroke:none;fill:rgb(100,100,178)">
    <polygon points="-1541,4463 2154,768 2169,783 -1526,4478"/>
   </g>
   <g style="stroke:none;fill:rgb(101,101,178)">
    <polygon points="-1526,4478 2169,783 2183,797 -1512,4492"/>
   </g>
   <g style="stroke:none;fill:rgb(102,102,179)">
    <polygon points="-1512,4492 2183,797 2198,812 -1497,4507"/>
   </g>
   <g style="stroke:none;fill:rgb(103,103,179)">
    <polygon points="-1497,4507 2198,812 2212,826 -1483,4521"/>
   </g>
   <g style="stroke:none;fill:rgb(104,104,180)">
    <polygon points="-1483,4521 2212,826 2227,841 -1468,4536"/>
   </g>
   <g style="stroke:none;fill:rgb(105,105,180)">
    <polygon points="-1468,4536 2227,841 2241,855 -1454,4550"/>
   </g>
   <g style="stroke:none;fill:rgb(106,106,181)">
    <polygon points="-1454,4550 2241,855 2256,870 -1439,4565"/>
   </g>
   <g style="stroke:none;fill:rgb(107,107,181)">
    <polygon points="-1439,4565 2256,870 2270,884 -1425,4579"/>
   </g>
   <g style="stroke:none;fill:rgb(108,108,182)">
    <polygon points="-1425,4579 2270,884 2285,899 -1410,4594"/>
   </g>
   <g style="stroke:none;fill:rgb(109,109,182)">
    <polygon points="-1410,4594 2285,899 2299,913 -1396,4608"/>
   </g>
   <g style="stroke:none;fill:rgb(110,110,183)">
    <polygon points="-1396,4608 2299,913 2314,928 -1381,4623"/>
   </g>
   <g style="stroke:none;fill:rgb(111,111,183)">
    <polygon points="-1381,4623 2314,928 2328,942 -1367,4637"/>
   </g>
   <g style="stroke:none;fill:rgb(112,112,184)">
    <polygon points="-1367,4637 2328,942 2343,957 -1352,4652"/>
   </g>
   <g style="stroke:none;fill:rgb(113,113,184)">
    <polygon points="-1352,4652 2343,957 2357,971 -1338,4666"/>
   </g>
   <g style="stroke:none;fill:rgb(114,114,185)">
    <polygon points="-1338,4666 2357,971 2371,986 -1323,4681"/>
   </g>
   <g style="stroke:none;fill:rgb(115,115,185)">
    <polygon points="-1323,4681 2371,986 2386,1000 -1309,4695"/>
   </g>
   <g style="stroke:none;fill:rgb(116,116,186)">
    <polygon points="-1309,4695 2386,1000 2400,1015 -1294,4710"/>
   </g>
   <g style="stroke:none;fill:rgb(117,117,186)">
    <polygon points="-1294,4710 2400,1015 2415,1029 -1280,4724"/>
   </g>
   <g style="stroke:none;fill:rgb(118,118,187)">
    <polygon points="-1280,4724 2415,1029 2429,1044 -1265,4739"/>
   </g>
   <g style="stroke:none;fill:rgb(119,119,187)">
    <polygon points="-1265,4739 2429,1044 2444,1058 -1251,4753"/>
   </g>
   <g style="stroke:none;fill:rgb(120,120,188)">
    <polygon points="-1251,4753 2444,1058 2458,1073 -1236,4768"/>
   </g>
   <g style="stroke:none;fill:rgb(121,121,188)">
    <polygon points="-1236,4768 2458,1073 2473,1087 -1222,4782"/>
   </g>
   <g style="stroke:none;fill:rgb(122,122,189)">
    <polygon points="-1222,4782 2473,1087 2487,1102 -1207,4797"/>
   </g>
   <g style="stroke:none;fill:rgb(123,123,189)">
    <polygon points="-1207,4797 2487,1102 2502,1116 -1193,4811"/>
   </g>
   <g style="stroke:none;fill:rgb(124,124,190)">
    <polygon points="-1193,4811 2502,1116 2516,1131 -1178,4826"/>
   </g>
   <g style="stroke:none;fill:rgb(125,125,190)">
    <polygon points="-1178,4826 2516,1131 2531,1145 -1164,4840"/>
   </g>
   <g style="stroke:none;fill:rgb(126,126,191)">
    <polygon points="-1164,4840 2531,1145 2545,1160 -1149,4855"/>
   </g>
   <g style="stroke:none;fill:rgb(127,127,191)">
    <polygon points="-1149,4855 2545,1160 2560,1174 -1135,4869"/>
   </g>
   <g style="stroke:none;fill:rgb(128,128,191)">
    <polygon points="-1135,4869 2560,1174 2574,1189 -1120,4884"/>
   </g>
   <g style="stroke:none;fill:rgb(129,129,192)">
    <polygon points="-1120,4884 2574,1189 2589,1203 -1106,4898"/>
   </g>
   <g style="stroke:none;fill:rgb(130,130,192)">
    <polygon points="-1106,4898 2589,1203 2603,1218 -1091,4913"/>
   </g>
   <g style="stroke:none;fill:rgb(131,131,193)">
    <polygon points="-1091,4913 2603,1218 2618,1232 -1077,4927"/>
   </g>
   <g style="stroke:none;fill:rgb(132,132,193)">
    <polygon points="-1077,4927 2618,1232 2632,1247 -1062,4942"/>
   </g>
   <g style="stroke:none;fill:rgb(133,133,194)">
    <polygon points="-1062,4942 2632,1247 2647,1261 -1048,4956"/>
   </g>
   <g style="stroke:none;fill:rgb(134,134,194)">
    <polygon points="-1048,4956 2647,1261 2661,1276 -1033,4971"/>
   </g>
   <g style="stroke:none;fill:rgb(135,135,195)">
    <polygon points="-1033,4971 2661,1276 2676,1290 -1019,4985"/>
   </g>
   <g style="stroke:none;fill:rgb(136,136,195)">
    <polygon points="-1019,4985 2676,1290 2690,1305 -1004,5000"/>
   </g>
   <g style="stroke:none;fill:rgb(137,137,196)">
    <polygon points="-1004,5000 2690,1305 2705,1319 -990,5014"/>
   </g>
   <g style="stroke:none;fill:rgb(138,138,196)">
    <polygon points="-990,5014 2705,1319 2719,1334 -975,5029"/>
   </g>
   <g style="stroke:none;fill:rgb(139,139,197)">
    <polygon points="-975,5029 2719,1334 2734,1348 -961,5043"/>
   </g>
   <g style="stroke:none;fill:rgb(140,140,197)">
    <polygon points="-961,5043 2734,1348 2748,1363 -946,5058"/>
   </g>
   <g style="stroke:none;fill:rgb(141,141,198)">
    <polygon points="-946,5058 2748,1363 2763,1377 -932,5072"/>
   </g>
   <g style="stroke:none;fill:rgb(142,142,198)">
    <polygon points="-932,5072 2763,1377 2777,1392 -917,5087"/>
   </g>
   <g style="stroke:none;fill:rgb(143,143,199)">
    <polygon points="-917,5087 2777,1392 2792,1406 -903,5101"/>
   </g>
   <g style="stroke:none;fill:rgb(144,144,199)">
    <polygon points="-903,5101 2792,1406 2806,1421 -888,5116"/>
   </g>
   <g style="stroke:none;fill:rgb(145,145,200)">
    <polygon points="-888,5116 2806,1421 2821,1435 -874,5130"/>
   </g>
   <g style="stroke:none;fill:rgb(146,146,200)">
    <polygon points="-874,5130 2821,1435 2835,1450 -859,5145"/>
   </g>
   <g style="stroke:none;fill:rgb(147,147,201)">
    <polygon points="-859,5145 2835,1450 2850,1464 -845,5159"/>
   </g>
   <g style="stroke:none;fill:rgb(148,148,201)">
    <polygon points="-845,5159 2850,1464 2864,1479 -830,5174"/>
   </g>
   <g style="stroke:none;fill:rgb(149,149,202)">
    <polygon points="-830,5174 2864,1479 2878,1493 -816,5188"/>
   </g>
   <g style="stroke:none;fill:rgb(150,150,202)">
    <polygon points="-816,5188 2878,1493 2893,1508 -801,5203"/>
   </g>
   <g style="stroke:none;fill:rgb(151,151,203)">
    <polygon points="-801,5203 2893,1508 2907,1522 -787,5217"/>
   </g>
   <g style="stroke:none;fill:rgb(152,152,203)">
    <polygon points="-787,5217 2907,1522 2922,1537 -772,5232"/>
   </g>
   <g style="stroke:none;fill:rgb(153,153,204)">
    <polygon points="-772,5232 2922,1537 2936,1551 -758,5246"/>
   </g>
   <g style="stroke:none;fill:rgb(154,154,204)">
    <polygon points="-758,5246 2936,1551 2951,1566 -743,5261"/>
   </g>
   <g style="stroke:none;fill:rgb(155,155,205)">
    <polygon points="-743,5261 2951,1566 2965,1580 -729,5275"/>
   </g>
   <g style="stroke:none;fill:rgb(156,156,205)">
    <polygon points="-729,5275 2965,1580 2980,1595 -714,5290"/>
   </g>
   <g style="stroke:none;fill:rgb(157,157,206)">
    <polygon points="-714,5290 2980,1595 2994,1609 -700,5304"/>
   </g>
   <g style="stroke:none;fill:rgb(158,158,206)">
    <polygon points="-700,5304 2994,1609 3009,1624 -685,5319"/>
   </g>
   <g style="stroke:none;fill:rgb(159,159,207)">
    <polygon points="-685,5319 3009,1624 3023,1638 -671,5333"/>
   </g>
   <g style="stroke:none;fill:rgb(160,160,207)">
    <polygon points="-671,5333 3023,1638 3038,1653 -656,5348"/>
   </g>
   <g style="stroke:none;fill:rgb(161,161,208)">
    <polygon points="-656,5348 3038,1653 3052,1667 -642,5362"/>
   </g>
   <g style="stroke:none;fill:rgb(162,162,208)">
    <polygon points="-642,5362 3052,1667 3067,1682 -627,5377"/>
   </g>
   <g style="stroke:none;fill:rgb(163,163,209)">
    <polygon points="-627,5377 3067,1682 3081,1696 -613,5391"/>
   </g>
   <g style="stroke:none;fill:rgb(164,164,209)">
    <polygon points="-613,5391 3081,1696 3096,1711 -598,5406"/>
   </g>
   <g style="stroke:none;fill:rgb(165,165,210)">
    <polygon points="-598,5406 3096,1711 3110,1725 -584,5420"/>
   </g>
   <g style="stroke:none;fill:rgb(166,166,210)">
    <polygon points="-584,5420 3110,1725 3125,1740 -569,5435"/>
   </g>
   <g style="stroke:none;fill:rgb(167,167,211)">
    <polygon points="-569,5435 3125,1740 3139,1754 -555,5449"/>
   </g>
   <g style="stroke:none;fill:rgb(168,168,211)">
    <polygon points="-555,5449 3139,1754 3154,1769 -540,5464"/>
   </g>
   <g style="stroke:none;fill:rgb(169,169,212)">
    <polygon points="-540,5464 3154,1769 3168,1783 -526,5478"/>
   </g>
   <g style="stroke:none;fill:rgb(170,170,212)">
    <polygon points="-526,5478 3168,1783 3183,1798 -511,5493"/>
   </g>
   <g style="stroke:none;fill:rgb(171,171,213)">
    <polygon points="-511,5493 3183,1798 3197,1812 -497,5507"/>
   </g>
   <g style="stroke:none;fill:rgb(172,172,213)">
    <polygon points="-497,5507 3197,1812 3212,1827 -482,5522"/>
   </g>
   <g style="stroke:none;fill:rgb(173,173,214)">
    <polygon points="-482,5522 3212,1827 3226,1841 -468,5536"/>
   </g>
   <g style="stroke:none;fill:rgb(174,174,214)">
    <polygon points="-468,5536 3226,1841 3241,1856 -453,5551"/>
   </g>
   <g style="stroke:none;fill:rgb(175,175,215)">
    <polygon points="-453,5551 3241,1856 3255,1870 -439,5565"/>
   </g>
   <g style="stroke:none;fill:rgb(176,176,215)">
    <polygon points="-439,5565 3255,1870 3270,1885 -424,5580"/>
   </g>
   <g style="stroke:none;fill:rgb(177,177,216)">
    <polygon points="-424,5580 3270,1885 3284,1899 -410,5594"/>
   </g>
   <g style="stroke:none;fill:rgb(178,178,216)">
    <polygon points="-410,5594 3284,1899 3299,1914 -395,5609"/>
   </g>
   <g style="stroke:none;fill:rgb(179,179,217)">
    <polygon points="-395,5609 3299,1914 3313,1928 -381,5623"/>
   </g>
   <g style="stroke:none;fill:rgb(180,180,217)">
    <polygon points="-381,5623 3313,1928 3328,1943 -366,5638"/>
   </g>
   <g style="stroke:none;fill:rgb(181,181,218)">
    <polygon points="-366,5638 3328,1943 3342,1957 -352,5652"/>
   </g>
   <g style="stroke:none;fill:rgb(182,182,218)">
    <polygon points="-352,5652 3342,1957 3357,1972 -337,5666"/>
   </g>
   <g style="stroke:none;fill:rgb(183,183,219)">
    <polygon points="-337,5666 3357,1972 3371,1986 -323,5681"/>
   </g>
   <g style="stroke:none;fill:rgb(184,184,219)">
    <polygon points="-323,5681 3371,1986 3386,2001 -308,5695"/>
   </g>
   <g style="stroke:none;fill:rgb(185,185,220)">
    <polygon points="-308,5695 3386,2001 3400,2015 -294,5710"/>
   </g>
   <g style="stroke:none;fill:rgb(186,186,220)">
    <polygon points="-294,5710 3400,2015 3415,2030 -279,5724"/>
   </g>
   <g style="stroke:none;fill:rgb(187,187,221)">
    <polygon points="-279,5724 3415,2030 3429,2044 -265,5739"/>
   </g>
   <g style="stroke:none;fill:rgb(188,188,221)">
    <polygon points="-265,5739 3429,2044 3444,2059 -250,5753"/>
   </g>
   <g style="stroke:none;fill:rgb(189,189,222)">
    <polygon points="-250,5753 3444,2059 3458,2073 -236,5768"/>
   </g>
   <g style="stroke:none;fill:rgb(190,190,222)">
    <polygon points="-236,5768 3458,2073 3473,2088 -221,5782"/>
   </g>
   <g style="stroke:none;fill:rgb(191,191,223)">
    <polygon points="-221,5782 3473,2088 3487,2102 -207,5797"/>
   </g>
   <g style="stroke:none;fill:rgb(192,192,223)">
    <polygon points="-207,5797 3487,2102 3502,2117 -192,5811"/>
   </g>
   <g style="stroke:none;fill:rgb(193,193,224)">
    <polygon points="-192,5811 3502,2117 3516,2131 -178,5826"/>
   </g>
   <g style="stroke:none;fill:rgb(194,194,224)">
    <polygon points="-178,5826 3516,2131 3531,2146 -163,5840"/>
   </g>
   <g style="stroke:none;fill:rgb(195,195,225)">
    <polygon points="-163,5840 3531,2146 3545,2160 -149,5855"/>
   </g>
   <g style="stroke:none;fill:rgb(196,196,225)">
    <polygon points="-149,5855 3545,2160 3560,2175 -134,5869"/>
   </g>
   <g style="stroke:none;fill:rgb(197,197,226)">
    <polygon points="-134,5869 3560,2175 3574,2189 -120,5884"/>
   </g>
   <g style="stroke:none;fill:rgb(198,198,226)">
    <polygon points="-120,5884 3574,2189 3589,2204 -105,5898"/>
   </g>
   <g style="stroke:none;fill:rgb(199,199,227)">
    <polygon points="-105,5898 3589,2204 3603,2218 -91,5913"/>
   </g>
   <g style="stroke:none;fill:rgb(200,200,227)">
    <polygon points="-91,5913 3603,2218 3618,2233 -77,5927"/>
   </g>
   <g style="stroke:none;fill:rgb(201,201,228)">
    <polygon points="-77,5927 3618,2233 3632,2247 -62,5942"/>
   </g>
   <g style="stroke:none;fill:rgb(202,202,228)">
    <polygon points="-62,5942 3632,2247 3647,2262 -48,5956"/>
   </g>
   <g style="stroke:none;fill:rgb(203,203,229)">
    <polygon points="-48,5956 3647,2262 3661,2276 -33,5971"/>
   </g>
   <g style="stroke:none;fill:rgb(204,204,229)">
    <polygon points="-33,5971 3661,2276 3676,2291 -19,5985"/>
   </g>
   <g style="stroke:none;fill:rgb(205,205,230)">
    <polygon points="-19,5985 3676,2291 3690,2305 -4,6000"/>
   </g>
   <g style="stroke:none;fill:rgb(206,206,230)">
    <polygon points="-4,6000 3690,2305 3705,2320 10,6014"/>
   </g>
   <g style="stroke:none;fill:rgb(207,207,231)">
    <polygon points="10,6014 3705,2320 3719,2334 25,6029"/>
   </g>
   <g style="stroke:none;fill:rgb(208,208,231)">
    <polygon points="25,6029 3719,2334 3734,2349 39,6043"/>
   </g>
   <g style="stroke:none;fill:rgb(209,209,232)">
    <polygon points="39,6043 3734,2349 3748,2363 54,6058"/>
   </g>
   <g style="stroke:none;fill:rgb(210,210,232)">
    <polygon points="54,6058 3748,2363 3763,2378 68,6072"/>
   </g>
   <g style="stroke:none;fill:rgb(211,211,233)">
    <polygon points="68,6072 3763,2378 3777,2392 83,6087"/>
   </g>
   <g style="stroke:none;fill:rgb(212,212,233)">
    <polygon points="83,6087 3777,2392 3792,2407 97,6101"/>
   </g>
   <g style="stroke:none;fill:rgb(213,213,234)">
    <polygon points="97,6101 3792,2407 3806,2421 112,6116"/>
   </g>
   <g style="stroke:none;fill:rgb(214,214,234)">
    <polygon points="112,6116 3806,2421 3821,2436 126,6130"/>
   </g>
   <g style="stroke:none;fill:rgb(215,215,235)">
    <polygon points="126,6130 3821,2436 3835,2450 141,6145"/>
   </g>
   <g style="stroke:none;fill:rgb(216,216,235)">
    <polygon points="141,6145 3835,2450 3850,2465 155,6159"/>
   </g>
   <g style="stroke:none;fill:rgb(217,217,236)">
    <polygon points="155,6159 3850,2465 3864,2479 170,6173"/>
   </g>
   <g style="stroke:none;fill:rgb(218,218,236)">
    <polygon points="170,6173 3864,2479 3879,2494 184,6188"/>
   </g>
   <g style="stroke:none;fill:rgb(219,219,237)">
    <polygon points="184,6188 3879,2494 3893,2508 199,6202"/>
   </g>
   <g style="stroke:none;fill:rgb(220,220,237)">
    <polygon points="199,6202 3893,2508 3908,2523 213,6217"/>
   </g>
   <g style="stroke:none;fill:rgb(221,221,238)">
    <polygon points="213,6217 3908,2523 3922,2537 228,6231"/>
   </g>
   <g style="stroke:none;fill:rgb(222,222,238)">
    <polygon points="228,6231 3922,2537 3937,2552 242,6246"/>
   </g>
   <g style="stroke:none;fill:rgb(223,223,239)">
    <polygon points="242,6246 3937,2552 3951,2566 257,6260"/>
   </g>
   <g style="stroke:none;fill:rgb(224,224,239)">
    <polygon points="257,6260 3951,2566 3966,2581 271,6275"/>
   </g>
   <g style="stroke:none;fill:rgb(225,225,240)">
    <polygon points="271,6275 3966,2581 3980,2595 286,6289"/>
   </g>
   <g style="stroke:none;fill:rgb(226,226,240)">
    <polygon points="286,6289 3980,2595 3995,2610 300,6304"/>
   </g>
   <g style="stroke:none;fill:rgb(227,227,241)">
    <polygon points="300,6304 3995,2610 4009,2624 315,6318"/>
   </g>
   <g style="stroke:none;fill:rgb(228,228,241)">
    <polygon points="315,6318 4009,2624 4024,2639 329,6333"/>
   </g>
   <g style="stroke:none;fill:rgb(229,229,242)">
    <polygon points="329,6333 4024,2639 4038,2653 344,6347"/>
   </g>
   <g style="stroke:none;fill:rgb(230,230,242)">
    <polygon points="344,6347 4038,2653 4053,2668 358,6362"/>
   </g>
   <g style="stroke:none;fill:rgb(231,231,243)">
    <polygon points="358,6362 4053,2668 4067,2682 373,6376"/>
   </g>
   <g style="stroke:none;fill:rgb(232,232,243)">
    <polygon points="373,6376 4067,2682 4082,2697 387,6391"/>
   </g>
   <g style="stroke:none;fill:rgb(233,233,244)">
    <polygon points="387,6391 4082,2697 4096,2711 402,6405"/>
   </g>
   <g style="stroke:none;fill:rgb(234,234,244)">
    <polygon points="402,6405 4096,2711 4111,2726 416,6420"/>
   </g>
   <g style="stroke:none;fill:rgb(235,235,245)">
    <polygon points="416,6420 4111,2726 4125,2740 430,6434"/>
   </g>
   <g style="stroke:none;fill:rgb(236,236,245)">
    <polygon points="430,6434 4125,2740 4140,2755 445,6449"/>
   </g>
   <g style="stroke:none;fill:rgb(237,237,246)">
    <polygon points="445,6449 4140,2755 4154,2769 459,6463"/>
   </g>
   <g style="stroke:none;fill:rgb(238,238,246)">
    <polygon points="459,6463 4154,2769 4169,2784 474,6478"/>
   </g>
   <g style="stroke:none;fill:rgb(239,239,247)">
    <polygon points="474,6478 4169,2784 4183,2798 488,6492"/>
   </g>
   <g style="stroke:none;fill:rgb(240,240,247)">
    <polygon points="488,6492 4183,2798 4198,2813 503,6507"/>
   </g>
   <g style="stroke:none;fill:rgb(241,241,248)">
    <polygon points="503,6507 4198,2813 4212,2827 517,6521"/>
   </g>
   <g style="stroke:none;fill:rgb(242,242,248)">
    <polygon points="517,6521 4212,2827 4227,2842 532,6536"/>
   </g>
   <g style="stroke:none;fill:rgb(243,243,249)">
    <polygon points="532,6536 4227,2842 4241,2856 546,6550"/>
   </g>
   <g style="stroke:none;fill:rgb(244,244,249)">
    <polygon points="546,6550 4241,2856 4256,2871 561,6565"/>
   </g>
   <g style="stroke:none;fill:rgb(245,245,250)">
    <polygon points="561,6565 4256,2871 4270,2885 575,6579"/>
   </g>
   <g style="stroke:none;fill:rgb(246,246,250)">
    <polygon points="575,6579 4270,2885 4285,2900 590,6594"/>
   </g>
   <g style="stroke:none;fill:rgb(247,247,251)">
    <polygon points="590,6594 4285,2900 4299,2914 604,6608"/>
   </g>
   <g style="stroke:none;fill:rgb(248,248,251)">
    <polygon points="604,6608 4299,2914 4314,2929 619,6623"/>
   </g>
   <g style="stroke:none;fill:rgb(249,249,252)">
    <polygon points="619,6623 4314,2929 4328,2943 633,6637"/>
   </g>
   <g style="stroke:none;fill:rgb(250,250,252)">
    <polygon points="633,6637 4328,2943 4343,2958 648,6652"/>
   </g>
   <g style="stroke:none;fill:rgb(251,251,253)">
    <polygon points="648,6652 4343,2958 4357,2972 662,6666"/>
   </g>
   <g style="stroke:none;fill:rgb(252,252,253)">
    <polygon points="662,6666 4357,2972 4372,2987 677,6681"/>
   </g>
   <g style="stroke:none;fill:rgb(253,253,254)">
    <polygon points="677,6681 4372,2987 4387,3001 692,6696"/>
   </g>
  </g>
 </g>
 <g style="stroke:rgb(0,0,0);fill:none">
  <polyline points="1381,0 1381,6001 0,3001 1381,0" style="fill:none"/>
 </g>
</svg>